<?xml version="1.0" standalone="no"?><!DOCTYPE svg PUBLIC "-//W3C//DTD SVG 1.1//EN" "http://www.w3.org/Graphics/SVG/1.1/DTD/svg11.dtd"><svg t="1739340805871" class="icon" viewBox="0 0 1024 1024" version="1.1" xmlns="http://www.w3.org/2000/svg" p-id="6991" xmlns:xlink="http://www.w3.org/1999/xlink" width="32" height="32"><path d="M743.687 588.342c-46.342 0-83.317 37.958-83.317 84.792v178.818c0 46.856 37.288 84.792 83.317 84.792 46.32 0 83.295-37.959 83.295-84.792V673.135c-0.001-46.856-37.288-84.793-83.295-84.793z m-467.197 0c-46.32 0-83.295 37.958-83.295 84.792v178.818c0 46.856 37.288 84.792 83.295 84.792 46.342 0 83.295-37.959 83.295-84.792V673.135c0-46.856-37.288-84.793-83.295-84.793zM499.526 87.255h24.926c-253.797 0-459.55 210.315-459.55 469.767v202.045c0 23.54 18.688 42.631 42.116 42.631 23.272 0 42.14-19.09 42.14-42.81V568.312c0-213.982 169.696-387.434 379.005-387.434h-32.326c209.331 0 379.006 173.475 379.006 387.434v190.576c0 23.63 18.711 42.81 42.139 42.81 23.25 0 42.116-19.203 42.116-42.631V557.022c0-259.45-205.754-469.767-459.572-469.767z" fill="#707070" p-id="6992"></path></svg>