<?xml version="1.0" standalone="no"?><!DOCTYPE svg PUBLIC "-//W3C//DTD SVG 1.1//EN" "http://www.w3.org/Graphics/SVG/1.1/DTD/svg11.dtd"><svg t="1739341279075" class="icon" viewBox="0 0 1024 1024" version="1.1" xmlns="http://www.w3.org/2000/svg" p-id="842" xmlns:xlink="http://www.w3.org/1999/xlink" width="32" height="32"><path d="M209.024 801.696c10.432 5.50399999 23.168 4.832 32.96-1.82400001L448 659.712 448 773.408c0 11.87200001 6.56 22.71999999 17.024 28.288 10.432 5.50399999 23.168 4.832 32.96-1.824l384-261.248C890.752 532.672 896 522.75200001 896 512.16s-5.248-20.512-14.016-26.464l-384-261.376c-5.408-3.68-11.68-5.568-17.984-5.568-5.12 0-10.272 1.216-14.976 3.712C454.56 228 447.99999999 238.912 448 250.75199999l0 113.79200001-206.016-140.224c-5.408-3.68-11.68-5.568-17.984-5.568-5.12 0-10.272 1.216-14.976 3.712C198.56 228 192 238.912 192 250.752L192 773.40800001C192 785.28 198.56 796.128 209.024 801.696z" fill="#ffffff" p-id="843"></path></svg>