<?xml version="1.0" standalone="no"?><!DOCTYPE svg PUBLIC "-//W3C//DTD SVG 1.1//EN" "http://www.w3.org/Graphics/SVG/1.1/DTD/svg11.dtd"><svg t="1738901758062" class="icon" viewBox="0 0 1024 1024" version="1.1" xmlns="http://www.w3.org/2000/svg" p-id="7111" xmlns:xlink="http://www.w3.org/1999/xlink" width="32" height="32"><path d="M95.8 234.9H64v578.5c0 38.4 31.4 65.7 69.9 65.7H453l22.2-32.4L95.8 786V234.9z m300.6-54.8l-254.9-35.2 0.3 619.4C249.2 755.9 490 800 490 818.5v-528c0-52.7-42-103.2-93.6-110.4z m485.8 584.2l0.3-619.4-254.9 35.2C576 187.3 534 237.8 534 290.5v528c0-18.5 240.8-62.6 348.2-54.2z m46-529.4V786l-379.4 60.7 22.2 32.4h319.2c38.4 0 69.9-27.2 69.9-65.7V234.9h-31.9z" fill="#E50012" p-id="7112"></path></svg>