<?xml version="1.0" standalone="no"?><!DOCTYPE svg PUBLIC "-//W3C//DTD SVG 1.1//EN" "http://www.w3.org/Graphics/SVG/1.1/DTD/svg11.dtd"><svg t="1738988147134" class="icon" viewBox="0 0 1024 1024" version="1.1" xmlns="http://www.w3.org/2000/svg" p-id="4336" xmlns:xlink="http://www.w3.org/1999/xlink" width="32" height="32"><path d="M689.067 631.467L889.6 832c38.4 38.4-19.2 96-57.6 57.6L631.467 689.067C576 731.733 505.6 757.333 430.933 757.333 249.6 757.333 102.4 610.133 102.4 428.8s147.2-326.4 328.533-326.4 328.534 147.2 328.534 328.533c-2.134 74.667-27.734 145.067-70.4 200.534z m-258.134 44.8c136.534 0 245.334-110.934 245.334-245.334S565.333 183.467 430.933 183.467 183.467 294.4 183.467 430.933 294.4 676.267 430.933 676.267z" p-id="4337" fill="#707070"></path></svg>